<mxfile host="app.diagrams.net" modified="2021-08-15T08:53:34.969Z" agent="5.0 (Macintosh; Intel Mac OS X 10_15_7) AppleWebKit/537.36 (KHTML, like Gecko) Chrome/86.0.4240.193 Safari/537.36" etag="yVHpEn2FKBALUD9ffWOg" version="14.9.6" type="github">
  <diagram id="Xi3s9gH5-SM_XlYVQTIW" name="Page-1">
    <mxGraphModel dx="946" dy="536" grid="1" gridSize="10" guides="1" tooltips="1" connect="1" arrows="1" fold="1" page="1" pageScale="1" pageWidth="827" pageHeight="1169" math="0" shadow="0">
      <root>
        <mxCell id="0" />
        <mxCell id="1" parent="0" />
        <mxCell id="h-twcEYHpjqjrBk9vmGL-1" value="3" style="rounded=0;whiteSpace=wrap;html=1;fillColor=#ffe6cc;strokeColor=#d79b00;" vertex="1" parent="1">
          <mxGeometry x="170" y="150" width="50" height="50" as="geometry" />
        </mxCell>
        <mxCell id="h-twcEYHpjqjrBk9vmGL-2" value="6" style="rounded=0;whiteSpace=wrap;html=1;fillColor=#ffe6cc;strokeColor=#d79b00;" vertex="1" parent="1">
          <mxGeometry x="220" y="150" width="50" height="50" as="geometry" />
        </mxCell>
        <mxCell id="h-twcEYHpjqjrBk9vmGL-3" value="7" style="rounded=0;whiteSpace=wrap;html=1;fillColor=#ffe6cc;strokeColor=#d79b00;" vertex="1" parent="1">
          <mxGeometry x="270" y="150" width="50" height="50" as="geometry" />
        </mxCell>
        <mxCell id="h-twcEYHpjqjrBk9vmGL-4" value="4" style="rounded=0;whiteSpace=wrap;html=1;fillColor=#ffe6cc;strokeColor=#d79b00;" vertex="1" parent="1">
          <mxGeometry x="320" y="150" width="50" height="50" as="geometry" />
        </mxCell>
        <mxCell id="h-twcEYHpjqjrBk9vmGL-5" value="2" style="rounded=0;whiteSpace=wrap;html=1;fillColor=#ffe6cc;strokeColor=#d79b00;" vertex="1" parent="1">
          <mxGeometry x="370" y="150" width="50" height="50" as="geometry" />
        </mxCell>
        <mxCell id="h-twcEYHpjqjrBk9vmGL-6" value="3" style="rounded=0;whiteSpace=wrap;html=1;fillColor=#ffe6cc;strokeColor=#d79b00;" vertex="1" parent="1">
          <mxGeometry x="170" y="230" width="50" height="50" as="geometry" />
        </mxCell>
        <mxCell id="h-twcEYHpjqjrBk9vmGL-7" value="6" style="rounded=0;whiteSpace=wrap;html=1;fillColor=#ffe6cc;strokeColor=#d79b00;" vertex="1" parent="1">
          <mxGeometry x="220" y="230" width="50" height="50" as="geometry" />
        </mxCell>
        <mxCell id="h-twcEYHpjqjrBk9vmGL-8" value="4" style="rounded=0;whiteSpace=wrap;html=1;fillColor=#dae8fc;strokeColor=#6c8ebf;" vertex="1" parent="1">
          <mxGeometry x="270" y="230" width="50" height="50" as="geometry" />
        </mxCell>
        <mxCell id="h-twcEYHpjqjrBk9vmGL-9" value="7" style="rounded=0;whiteSpace=wrap;html=1;fillColor=#dae8fc;strokeColor=#6c8ebf;" vertex="1" parent="1">
          <mxGeometry x="320" y="230" width="50" height="50" as="geometry" />
        </mxCell>
        <mxCell id="h-twcEYHpjqjrBk9vmGL-10" value="2" style="rounded=0;whiteSpace=wrap;html=1;fillColor=#ffe6cc;strokeColor=#d79b00;" vertex="1" parent="1">
          <mxGeometry x="370" y="230" width="50" height="50" as="geometry" />
        </mxCell>
        <mxCell id="h-twcEYHpjqjrBk9vmGL-11" value="3" style="rounded=0;whiteSpace=wrap;html=1;fillColor=#ffe6cc;strokeColor=#d79b00;" vertex="1" parent="1">
          <mxGeometry x="170" y="320" width="50" height="50" as="geometry" />
        </mxCell>
        <mxCell id="h-twcEYHpjqjrBk9vmGL-12" value="6" style="rounded=0;whiteSpace=wrap;html=1;fillColor=#dae8fc;strokeColor=#6c8ebf;" vertex="1" parent="1">
          <mxGeometry x="220" y="320" width="50" height="50" as="geometry" />
        </mxCell>
        <mxCell id="h-twcEYHpjqjrBk9vmGL-13" value="4" style="rounded=0;whiteSpace=wrap;html=1;fillColor=#dae8fc;strokeColor=#6c8ebf;" vertex="1" parent="1">
          <mxGeometry x="270" y="320" width="50" height="50" as="geometry" />
        </mxCell>
        <mxCell id="h-twcEYHpjqjrBk9vmGL-14" value="7" style="rounded=0;whiteSpace=wrap;html=1;fillColor=#ffe6cc;strokeColor=#d79b00;" vertex="1" parent="1">
          <mxGeometry x="320" y="320" width="50" height="50" as="geometry" />
        </mxCell>
        <mxCell id="h-twcEYHpjqjrBk9vmGL-15" value="2" style="rounded=0;whiteSpace=wrap;html=1;fillColor=#ffe6cc;strokeColor=#d79b00;" vertex="1" parent="1">
          <mxGeometry x="370" y="320" width="50" height="50" as="geometry" />
        </mxCell>
        <mxCell id="h-twcEYHpjqjrBk9vmGL-16" value="3" style="rounded=0;whiteSpace=wrap;html=1;fillColor=#dae8fc;strokeColor=#6c8ebf;" vertex="1" parent="1">
          <mxGeometry x="170" y="410" width="50" height="50" as="geometry" />
        </mxCell>
        <mxCell id="h-twcEYHpjqjrBk9vmGL-17" value="4" style="rounded=0;whiteSpace=wrap;html=1;fillColor=#dae8fc;strokeColor=#6c8ebf;" vertex="1" parent="1">
          <mxGeometry x="220" y="410" width="50" height="50" as="geometry" />
        </mxCell>
        <mxCell id="h-twcEYHpjqjrBk9vmGL-18" value="6" style="rounded=0;whiteSpace=wrap;html=1;fillColor=#ffe6cc;strokeColor=#d79b00;" vertex="1" parent="1">
          <mxGeometry x="270" y="410" width="50" height="50" as="geometry" />
        </mxCell>
        <mxCell id="h-twcEYHpjqjrBk9vmGL-19" value="7" style="rounded=0;whiteSpace=wrap;html=1;fillColor=#ffe6cc;strokeColor=#d79b00;" vertex="1" parent="1">
          <mxGeometry x="320" y="410" width="50" height="50" as="geometry" />
        </mxCell>
        <mxCell id="h-twcEYHpjqjrBk9vmGL-20" value="2" style="rounded=0;whiteSpace=wrap;html=1;fillColor=#ffe6cc;strokeColor=#d79b00;" vertex="1" parent="1">
          <mxGeometry x="370" y="410" width="50" height="50" as="geometry" />
        </mxCell>
      </root>
    </mxGraphModel>
  </diagram>
</mxfile>
